<mxfile host="Electron" agent="Mozilla/5.0 (X11; Linux x86_64) AppleWebKit/537.36 (KHTML, like Gecko) draw.io/26.0.4 Chrome/128.0.6613.186 Electron/32.2.5 Safari/537.36" version="26.0.4">
  <diagram name="Page-1" id="AXCxmvyL3wquDKCp_qeb">
    <mxGraphModel dx="1335" dy="731" grid="1" gridSize="10" guides="1" tooltips="1" connect="1" arrows="1" fold="1" page="1" pageScale="1" pageWidth="1100" pageHeight="850" math="0" shadow="0">
      <root>
        <mxCell id="0" />
        <mxCell id="1" parent="0" />
        <mxCell id="s676H4-dqHFNzXqADuOr-1" value="Start&lt;br&gt;Ready for FSAC Process" style="rounded=1;whiteSpace=wrap;html=1;" parent="1" vertex="1">
          <mxGeometry x="210" y="30" width="120" height="60" as="geometry" />
        </mxCell>
        <mxCell id="s676H4-dqHFNzXqADuOr-2" value="" style="endArrow=classic;html=1;rounded=0;exitX=0.5;exitY=1;exitDx=0;exitDy=0;entryX=0.5;entryY=0;entryDx=0;entryDy=0;" parent="1" source="s676H4-dqHFNzXqADuOr-1" target="s676H4-dqHFNzXqADuOr-3" edge="1">
          <mxGeometry width="50" height="50" relative="1" as="geometry">
            <mxPoint x="590" y="310" as="sourcePoint" />
            <mxPoint x="270" y="180" as="targetPoint" />
          </mxGeometry>
        </mxCell>
        <mxCell id="s676H4-dqHFNzXqADuOr-3" value="Perform thrust test experiment and log thrust results. Linearize in PX4 and confirm" style="rounded=0;whiteSpace=wrap;html=1;" parent="1" vertex="1">
          <mxGeometry x="210" y="140" width="120" height="80" as="geometry" />
        </mxCell>
        <mxCell id="s676H4-dqHFNzXqADuOr-4" value="Perform battery discharge curve + Produce Report" style="rounded=0;whiteSpace=wrap;html=1;" parent="1" vertex="1">
          <mxGeometry x="210" y="260" width="120" height="60" as="geometry" />
        </mxCell>
        <mxCell id="s676H4-dqHFNzXqADuOr-5" value="" style="endArrow=classic;html=1;rounded=0;exitX=0.5;exitY=1;exitDx=0;exitDy=0;entryX=0.5;entryY=0;entryDx=0;entryDy=0;" parent="1" source="s676H4-dqHFNzXqADuOr-3" target="s676H4-dqHFNzXqADuOr-4" edge="1">
          <mxGeometry width="50" height="50" relative="1" as="geometry">
            <mxPoint x="390" y="250" as="sourcePoint" />
            <mxPoint x="390" y="330" as="targetPoint" />
          </mxGeometry>
        </mxCell>
        <mxCell id="s676H4-dqHFNzXqADuOr-13" style="edgeStyle=orthogonalEdgeStyle;rounded=0;orthogonalLoop=1;jettySize=auto;html=1;exitX=0.5;exitY=1;exitDx=0;exitDy=0;entryX=0.5;entryY=0;entryDx=0;entryDy=0;" parent="1" source="s676H4-dqHFNzXqADuOr-6" target="s676H4-dqHFNzXqADuOr-9" edge="1">
          <mxGeometry relative="1" as="geometry" />
        </mxCell>
        <mxCell id="s676H4-dqHFNzXqADuOr-6" value="Install &quot;Ready to Integrate&quot; Flight Controller on the drone" style="rounded=0;whiteSpace=wrap;html=1;" parent="1" vertex="1">
          <mxGeometry x="210" y="380" width="120" height="70" as="geometry" />
        </mxCell>
        <mxCell id="s676H4-dqHFNzXqADuOr-7" value="" style="endArrow=classic;html=1;rounded=0;exitX=0.5;exitY=1;exitDx=0;exitDy=0;" parent="1" source="s676H4-dqHFNzXqADuOr-4" target="s676H4-dqHFNzXqADuOr-6" edge="1">
          <mxGeometry width="50" height="50" relative="1" as="geometry">
            <mxPoint x="450" y="380" as="sourcePoint" />
            <mxPoint x="450" y="460" as="targetPoint" />
          </mxGeometry>
        </mxCell>
        <mxCell id="s676H4-dqHFNzXqADuOr-16" value="" style="edgeStyle=orthogonalEdgeStyle;rounded=0;orthogonalLoop=1;jettySize=auto;html=1;" parent="1" source="s676H4-dqHFNzXqADuOr-9" target="s676H4-dqHFNzXqADuOr-15" edge="1">
          <mxGeometry relative="1" as="geometry" />
        </mxCell>
        <mxCell id="s676H4-dqHFNzXqADuOr-9" value="Calculate estimated CTW" style="rounded=0;whiteSpace=wrap;html=1;" parent="1" vertex="1">
          <mxGeometry x="210" y="500" width="120" height="80" as="geometry" />
        </mxCell>
        <mxCell id="s676H4-dqHFNzXqADuOr-20" value="" style="edgeStyle=orthogonalEdgeStyle;rounded=0;orthogonalLoop=1;jettySize=auto;html=1;entryX=0;entryY=0.5;entryDx=0;entryDy=0;" parent="1" source="s676H4-dqHFNzXqADuOr-15" target="s676H4-dqHFNzXqADuOr-19" edge="1">
          <mxGeometry relative="1" as="geometry">
            <Array as="points">
              <mxPoint x="390" y="690" />
              <mxPoint x="390" y="55" />
            </Array>
          </mxGeometry>
        </mxCell>
        <mxCell id="s676H4-dqHFNzXqADuOr-15" value="Set Wifi Static IP. Create a New Type and/or Instance. Input the CTW to the type and add the IP address to the instance." style="rounded=0;whiteSpace=wrap;html=1;" parent="1" vertex="1">
          <mxGeometry x="210" y="630" width="120" height="120" as="geometry" />
        </mxCell>
        <mxCell id="s676H4-dqHFNzXqADuOr-23" value="" style="edgeStyle=orthogonalEdgeStyle;rounded=0;orthogonalLoop=1;jettySize=auto;html=1;entryX=0.5;entryY=0;entryDx=0;entryDy=0;" parent="1" source="s676H4-dqHFNzXqADuOr-19" target="CFYVWYqj9RieKaHjNyov-4" edge="1">
          <mxGeometry relative="1" as="geometry">
            <mxPoint x="595" y="150" as="targetPoint" />
          </mxGeometry>
        </mxCell>
        <mxCell id="s676H4-dqHFNzXqADuOr-19" value="Update the variables inside the UAV Instance file depending on the drone use-case. (Indoor vs outdoor, RC or no RC, etc...)" style="rounded=0;whiteSpace=wrap;html=1;" parent="1" vertex="1">
          <mxGeometry x="465" y="20" width="170" height="70" as="geometry" />
        </mxCell>
        <mxCell id="s676H4-dqHFNzXqADuOr-21" value="* TODO: make detailed process" style="text;html=1;align=left;verticalAlign=bottom;whiteSpace=wrap;rounded=0;" parent="1" vertex="1">
          <mxGeometry x="650" y="410" width="130" height="30" as="geometry" />
        </mxCell>
        <mxCell id="s676H4-dqHFNzXqADuOr-25" style="edgeStyle=orthogonalEdgeStyle;rounded=0;orthogonalLoop=1;jettySize=auto;html=1;exitX=0.5;exitY=1;exitDx=0;exitDy=0;entryX=0.5;entryY=0;entryDx=0;entryDy=0;" parent="1" source="s676H4-dqHFNzXqADuOr-22" target="s676H4-dqHFNzXqADuOr-26" edge="1">
          <mxGeometry relative="1" as="geometry" />
        </mxCell>
        <mxCell id="s676H4-dqHFNzXqADuOr-22" value="Ensure the drone is mechanically balanced. Ensure generated thrust is normal to gravity. Remove the payload if necessary" style="rounded=0;whiteSpace=wrap;html=1;" parent="1" vertex="1">
          <mxGeometry x="465" y="250" width="170" height="100" as="geometry" />
        </mxCell>
        <mxCell id="s676H4-dqHFNzXqADuOr-24" value="Finish&lt;br&gt;Ready for FSAC Process" style="rounded=1;whiteSpace=wrap;html=1;" parent="1" vertex="1">
          <mxGeometry x="490" y="560" width="120" height="60" as="geometry" />
        </mxCell>
        <mxCell id="s676H4-dqHFNzXqADuOr-27" style="edgeStyle=orthogonalEdgeStyle;rounded=0;orthogonalLoop=1;jettySize=auto;html=1;exitX=0.5;exitY=1;exitDx=0;exitDy=0;" parent="1" source="s676H4-dqHFNzXqADuOr-26" target="CFYVWYqj9RieKaHjNyov-1" edge="1">
          <mxGeometry relative="1" as="geometry">
            <mxPoint x="550" y="540" as="targetPoint" />
          </mxGeometry>
        </mxCell>
        <mxCell id="s676H4-dqHFNzXqADuOr-26" value="Perform &#39;Flyable&#39; preflight checks" style="rounded=0;whiteSpace=wrap;html=1;" parent="1" vertex="1">
          <mxGeometry x="470" y="390" width="160" height="50" as="geometry" />
        </mxCell>
        <mxCell id="sD8y1UZoGzvrMHr7_GHt-1" value="* TODO: make detailed process" style="text;html=1;align=left;verticalAlign=bottom;whiteSpace=wrap;rounded=0;" parent="1" vertex="1">
          <mxGeometry x="650" y="500" width="130" height="30" as="geometry" />
        </mxCell>
        <mxCell id="CFYVWYqj9RieKaHjNyov-1" value="Perform a propeller-free flight check to ensure conventions and avionics are working fine" style="rounded=0;whiteSpace=wrap;html=1;" parent="1" vertex="1">
          <mxGeometry x="470" y="470" width="160" height="60" as="geometry" />
        </mxCell>
        <mxCell id="CFYVWYqj9RieKaHjNyov-3" style="edgeStyle=orthogonalEdgeStyle;rounded=0;orthogonalLoop=1;jettySize=auto;html=1;exitX=0.5;exitY=1;exitDx=0;exitDy=0;entryX=0.5;entryY=0;entryDx=0;entryDy=0;" parent="1" source="CFYVWYqj9RieKaHjNyov-1" target="s676H4-dqHFNzXqADuOr-24" edge="1">
          <mxGeometry relative="1" as="geometry">
            <mxPoint x="560" y="470" as="sourcePoint" />
            <mxPoint x="560" y="530" as="targetPoint" />
          </mxGeometry>
        </mxCell>
        <mxCell id="CFYVWYqj9RieKaHjNyov-4" value="Update the Pixhawk Parameters to reflect use-case + Update the battery settings to reflect attached battery parameters" style="rounded=0;whiteSpace=wrap;html=1;" parent="1" vertex="1">
          <mxGeometry x="465" y="130" width="170" height="90" as="geometry" />
        </mxCell>
        <mxCell id="CFYVWYqj9RieKaHjNyov-5" value="" style="edgeStyle=orthogonalEdgeStyle;rounded=0;orthogonalLoop=1;jettySize=auto;html=1;entryX=0.5;entryY=0;entryDx=0;entryDy=0;exitX=0.5;exitY=1;exitDx=0;exitDy=0;" parent="1" source="CFYVWYqj9RieKaHjNyov-4" target="s676H4-dqHFNzXqADuOr-22" edge="1">
          <mxGeometry relative="1" as="geometry">
            <mxPoint x="675" y="220" as="sourcePoint" />
            <mxPoint x="675" y="250" as="targetPoint" />
          </mxGeometry>
        </mxCell>
        <mxCell id="CFYVWYqj9RieKaHjNyov-6" value="*Final point isnt understandable" style="text;html=1;align=left;verticalAlign=bottom;whiteSpace=wrap;rounded=0;" parent="1" vertex="1">
          <mxGeometry x="650" y="320" width="130" height="30" as="geometry" />
        </mxCell>
      </root>
    </mxGraphModel>
  </diagram>
</mxfile>
